<?xml version="1.0" encoding="UTF-8"?>
<svg fill="#848484" width="100pt" height="100pt" version="1.1" viewBox="0 0 100 100" xmlns="http://www.w3.org/2000/svg">
 <path d="m89.797 13.266h-79.594c-1.7344 0-3.0625 1.3281-3.0625 3.0625v67.348c0 1.7344 1.3281 3.0625 3.0625 3.0625h79.594c1.7344 0 3.0625-1.3281 3.0625-3.0625l-0.003906-67.348c0-1.7344-1.3242-3.0625-3.0586-3.0625zm-3.0625 37.039-16.02-13.977c-1.2227-1.0195-2.9609-1.0195-4.082 0.10156l-12.754 12.039 23.98 29.387c0.91797 1.1211 0.71484 2.6523-0.30469 3.5703-0.51172 0.40625-1.0195 0.61328-1.6328 0.61328-0.71484 0-1.4297-0.30469-1.9375-0.91797l-34.496-41.938c-0.91797-1.2227-2.6523-1.4297-3.9805-0.71484l-22.242 13.57v-32.652h73.469z"/>
</svg>
