<?xml version="1.0" encoding="utf-8"?>
<!-- Generator: Adobe Illustrator 23.0.2, SVG Export Plug-In . SVG Version: 6.00 Build 0)  -->
<svg version="1.1" id="レイヤー_1" xmlns="http://www.w3.org/2000/svg" xmlns:xlink="http://www.w3.org/1999/xlink" x="0px"
	 y="0px" viewBox="0 0 84 72" style="enable-background:new 0 0 84 72;" xml:space="preserve">
<style type="text/css">
	.st0{fill:#848484;}
</style>
<path class="st0" d="M81,0H3C1.3,0,0,1.3,0,3v66c0,1.7,1.3,3,3,3h78c1.7,0,3-1.3,3-3l0-66C84,1.3,82.7,0,81,0z M78,36.3L62.3,22.6
	c-1.2-1-2.9-1-4,0.1L45.8,34.5l23.5,28.8c0.9,1.1,0.7,2.6-0.3,3.5c-0.5,0.4-1,0.6-1.6,0.6c-0.7,0-1.4-0.3-1.9-0.9L31.7,25.4
	c-0.9-1.2-2.6-1.4-3.9-0.7L6,38V6h72L78,36.3z"/>
</svg>
