<svg xmlns="http://www.w3.org/2000/svg" viewBox="0 0 24.68 11.95"><title>logo-sample01</title><g id="レイヤー_2" data-name="レイヤー 2"><g id="レイヤー_1-2" data-name="レイヤー 1"><path d="M1.27,0h1.8L1.8,9.07H0Z"/><path d="M3.29,6.16A3.24,3.24,0,0,1,3.71,4.9a3.53,3.53,0,0,1,.83-1,3.65,3.65,0,0,1,1.11-.62A4.07,4.07,0,0,1,7,3.1a3.45,3.45,0,0,1,1.23.21,2.53,2.53,0,0,1,1,.62,2.41,2.41,0,0,1,.56,1,2.88,2.88,0,0,1,.08,1.26,3.55,3.55,0,0,1-.43,1.26,3.83,3.83,0,0,1-.83,1A3.5,3.5,0,0,1,7.39,9a4,4,0,0,1-1.29.22A3.55,3.55,0,0,1,4.86,9a2.38,2.38,0,0,1-.94-.62,2.42,2.42,0,0,1-.55-1A2.76,2.76,0,0,1,3.29,6.16Zm1.8,0a1.32,1.32,0,0,0,.22,1.06,1.17,1.17,0,0,0,1,.41,1.53,1.53,0,0,0,1.12-.41A1.72,1.72,0,0,0,8,6.16a1.34,1.34,0,0,0-.23-1.07,1.22,1.22,0,0,0-1-.41,1.55,1.55,0,0,0-1.11.41A1.74,1.74,0,0,0,5.09,6.16Z"/><path d="M16.6,8.58a4,4,0,0,1-1.19,2.51,3.78,3.78,0,0,1-2.65.86,6.94,6.94,0,0,1-1.52-.17A2.93,2.93,0,0,1,10,11.1l1.2-1.49a3,3,0,0,0,.8.55,2.25,2.25,0,0,0,1,.21,1.88,1.88,0,0,0,1.27-.4,1.75,1.75,0,0,0,.54-1l.08-.56h0A2.14,2.14,0,0,1,14,9a2.53,2.53,0,0,1-.89.17,2.74,2.74,0,0,1-1.15-.22,2.13,2.13,0,0,1-.82-.62,2.25,2.25,0,0,1-.45-1,3,3,0,0,1,0-1.21A4,4,0,0,1,11,5a3.62,3.62,0,0,1,.66-1,3.48,3.48,0,0,1,.93-.68,2.61,2.61,0,0,1,1.15-.25,2.54,2.54,0,0,1,.7.08,2.25,2.25,0,0,1,.54.22,1.32,1.32,0,0,1,.39.29,1.12,1.12,0,0,1,.24.32h0l.11-.77h1.65ZM12.41,6.12a1.45,1.45,0,0,0,0,.55,1.22,1.22,0,0,0,.24.45,1.19,1.19,0,0,0,.41.32,1.23,1.23,0,0,0,.55.12,1.52,1.52,0,0,0,.59-.12,2,2,0,0,0,.5-.32,1.78,1.78,0,0,0,.37-.45,1.64,1.64,0,0,0,.19-.55,1.45,1.45,0,0,0,0-.55A1.2,1.2,0,0,0,15,5.12a1.26,1.26,0,0,0-1-.44,1.48,1.48,0,0,0-.59.12,2,2,0,0,0-.87.77A1.42,1.42,0,0,0,12.41,6.12Z"/><path d="M18.17,6.16a3.24,3.24,0,0,1,.42-1.26,3.53,3.53,0,0,1,.83-1,3.65,3.65,0,0,1,1.11-.62,4.07,4.07,0,0,1,1.3-.21,3.45,3.45,0,0,1,1.23.21,2.53,2.53,0,0,1,1,.62,2.41,2.41,0,0,1,.56,1,2.88,2.88,0,0,1,.08,1.26,3.55,3.55,0,0,1-.43,1.26,3.83,3.83,0,0,1-.83,1A3.5,3.5,0,0,1,22.27,9,4,4,0,0,1,21,9.22,3.55,3.55,0,0,1,19.74,9a2.38,2.38,0,0,1-.94-.62,2.42,2.42,0,0,1-.55-1A2.76,2.76,0,0,1,18.17,6.16Zm1.8,0a1.32,1.32,0,0,0,.22,1.06,1.17,1.17,0,0,0,1,.41,1.53,1.53,0,0,0,1.12-.41,1.72,1.72,0,0,0,.54-1.06,1.34,1.34,0,0,0-.23-1.07,1.22,1.22,0,0,0-1-.41,1.55,1.55,0,0,0-1.11.41A1.74,1.74,0,0,0,20,6.16Z"/></g></g></svg>