<?xml version="1.0" encoding="utf-8"?>
<!-- Generator: Adobe Illustrator 23.0.2, SVG Export Plug-In . SVG Version: 6.00 Build 0)  -->
<svg version="1.1" id="レイヤー_1" xmlns="http://www.w3.org/2000/svg" xmlns:xlink="http://www.w3.org/1999/xlink" x="0px"
	 y="0px" viewBox="0 0 33.6 9" style="enable-background:new 0 0 33.6 9;" xml:space="preserve">
<style type="text/css">
	.st0{fill:#848484;}
</style>
<title>logo</title>
<g>
	<g id="レイヤー_1-2">
		<path class="st0" d="M1.9,0.2v7h4.2v1.6H0V0.2H1.9z"/>
		<path class="st0" d="M7,2.7c0.2-0.5,0.5-1,0.8-1.4c0.4-0.4,0.8-0.8,1.3-1C9.7,0.1,10.4,0,11,0c0.6,0,1.2,0.1,1.8,0.3
			c0.5,0.2,1,0.6,1.3,1c0.4,0.4,0.7,0.9,0.8,1.4c0.2,0.6,0.3,1.2,0.3,1.8c0,0.6-0.1,1.2-0.3,1.8c-0.2,0.5-0.5,1-0.8,1.4
			c-0.4,0.4-0.8,0.7-1.3,0.9C12.2,8.9,11.6,9,11,9c-0.6,0-1.2-0.1-1.8-0.3c-0.5-0.2-1-0.5-1.3-0.9C7.5,7.3,7.2,6.8,7,6.3
			C6.8,5.7,6.7,5.1,6.7,4.5C6.7,3.9,6.8,3.3,7,2.7z M8.8,5.6C8.8,5.9,9,6.2,9.2,6.5C9.3,6.8,9.6,7,9.9,7.2c0.3,0.2,0.7,0.3,1.1,0.2
			c0.3,0,0.7-0.1,1-0.2c0.3-0.2,0.5-0.4,0.7-0.7c0.2-0.3,0.3-0.6,0.4-0.9c0.1-0.3,0.1-0.7,0.1-1c0-0.4,0-0.7-0.1-1.1
			c-0.1-0.3-0.2-0.7-0.4-0.9C12.5,2.2,12.3,2,12,1.8c-0.3-0.2-0.7-0.2-1-0.2c-0.4,0-0.7,0.1-1.1,0.2C9.6,2,9.4,2.2,9.2,2.5
			C9,2.8,8.9,3.1,8.8,3.4C8.7,3.8,8.7,4.2,8.7,4.5C8.7,4.9,8.7,5.2,8.8,5.6z"/>
		<path class="st0" d="M21.5,8.7C21.1,8.9,20.7,9,20.3,9c-0.6,0-1.2-0.1-1.8-0.3c-0.5-0.2-1-0.5-1.3-0.9c-0.4-0.4-0.6-0.9-0.8-1.4
			c-0.2-0.6-0.3-1.2-0.3-1.8c0-0.6,0.1-1.2,0.3-1.8c0.2-0.5,0.5-1,0.8-1.4c0.4-0.4,0.8-0.8,1.3-1C19.1,0.1,19.7,0,20.3,0
			c0.4,0,0.9,0.1,1.3,0.2c0.4,0.1,0.8,0.3,1.1,0.6c0.3,0.3,0.6,0.6,0.8,1c0.2,0.4,0.3,0.8,0.4,1.2h-1.8c-0.1-0.4-0.3-0.8-0.6-1.1
			c-0.3-0.2-0.8-0.4-1.2-0.4c-0.4,0-0.7,0.1-1.1,0.2c-0.3,0.2-0.5,0.4-0.7,0.7c-0.2,0.3-0.3,0.6-0.4,0.9C18,3.8,18,4.1,18,4.5
			c0,0.4,0,0.7,0.1,1c0.1,0.3,0.2,0.6,0.4,0.9C18.7,6.8,19,7,19.2,7.1c0.3,0.2,0.7,0.3,1.1,0.2c0.5,0,1-0.1,1.5-0.5
			c0.4-0.4,0.6-0.9,0.6-1.4h-1.9V4.1H24v4.6h-1.2l-0.2-1C22.3,8.2,22,8.5,21.5,8.7z"/>
		<path class="st0" d="M25.5,2.7c0.2-0.5,0.5-1,0.8-1.4c0.4-0.4,0.8-0.8,1.3-1C28.2,0.1,28.8,0,29.4,0c0.6,0,1.2,0.1,1.8,0.3
			c0.5,0.2,1,0.6,1.3,1c0.4,0.4,0.6,0.9,0.8,1.4c0.2,0.6,0.3,1.2,0.3,1.8c0,0.6-0.1,1.2-0.3,1.8c-0.2,0.5-0.5,1-0.8,1.4
			c-0.4,0.4-0.8,0.7-1.3,0.9C30.6,8.9,30,9,29.4,9c-0.6,0-1.2-0.1-1.8-0.3c-0.5-0.2-1-0.5-1.3-0.9c-0.4-0.4-0.6-0.9-0.8-1.4
			c-0.2-0.6-0.3-1.2-0.3-1.8C25.2,3.9,25.3,3.3,25.5,2.7z M27.2,5.6c0.1,0.3,0.2,0.6,0.4,0.9C27.8,6.8,28,7,28.3,7.2
			c0.7,0.3,1.5,0.3,2.2,0C30.8,7,31,6.8,31.2,6.5c0.2-0.3,0.3-0.6,0.4-0.9c0.1-0.3,0.1-0.7,0.1-1c0-0.4,0-0.7-0.1-1.1
			c-0.1-0.3-0.2-0.7-0.4-0.9C31,2.2,30.8,2,30.5,1.8c-0.7-0.3-1.5-0.3-2.2,0C28,2,27.8,2.2,27.6,2.5c-0.2,0.3-0.3,0.6-0.4,0.9
			c-0.1,0.4-0.1,0.7-0.1,1.1C27.1,4.9,27.1,5.2,27.2,5.6z"/>
	</g>
</g>
</svg>
