<svg xmlns="http://www.w3.org/2000/svg" viewBox="0 0 24.82 13.64"><title>logo-sample02</title><g id="レイヤー_2" data-name="レイヤー 2"><g id="レイヤー_1-2" data-name="レイヤー 1"><path d="M.34.72A.11.11,0,0,1,.22.6.11.11,0,0,1,.34.48a4.78,4.78,0,0,0,2-.44.21.21,0,0,1,.12,0,.13.13,0,0,1,.13.14s0,.12,0,.52,0,.71,0,1.35V9c0,.82,0,.86.89.86a.12.12,0,1,1,0,.24c-.11,0-.46,0-.81,0l-.84,0-.77,0a8.71,8.71,0,0,1-.87,0,.12.12,0,1,1,0-.24C1,9.87,1,9.85,1,9V1.85C1,.76,1,.72.43.72Z"/><path d="M10.83,7a3.28,3.28,0,0,1-3.19,3.26,3.27,3.27,0,0,1,0-6.54A3.31,3.31,0,0,1,10.83,7ZM9.19,7a5.84,5.84,0,0,0-.35-2.15,1.36,1.36,0,0,0-1.2-.89,1.37,1.37,0,0,0-1.2.89A5.84,5.84,0,0,0,6.09,7,5.71,5.71,0,0,0,6.44,9.1a1.35,1.35,0,0,0,1.2.89,1.34,1.34,0,0,0,1.2-.89A5.71,5.71,0,0,0,9.19,7Z"/><path d="M15.26,9.33c1.68,0,2.52.61,2.52,1.79,0,1.51-1.55,2.52-3.29,2.52s-3-.63-3-1.61c0-.78.58-1.3,1.67-1.42A1.32,1.32,0,0,1,12,9.28a1.69,1.69,0,0,1,1.2-1.56,2,2,0,0,1-.92-1.64,2.36,2.36,0,0,1,2.48-2.39,2.54,2.54,0,0,1,.6.08A1.9,1.9,0,0,1,17,2.09a.86.86,0,0,1,1,.81.73.73,0,0,1-.74.79.59.59,0,0,1-.64-.6A.64.64,0,0,1,17,2.47c.07,0,.1,0,.1-.08s-.05-.06-.16-.06c-.62,0-1.23.58-1.44,1.51a2.15,2.15,0,0,1,1.6,2,2.37,2.37,0,0,1-2.48,2.39,2.63,2.63,0,0,1-1.28-.35.81.81,0,0,0-.46.74c0,.39.3.75,1.38.75Zm-1.5,1.33a.86.86,0,0,0-.59.18,1.4,1.4,0,0,0-.44,1.09c0,.87.59,1.47,1.91,1.47a1.79,1.79,0,0,0,2-1.59c0-.81-.74-1.15-1.87-1.15ZM13.65,6A3,3,0,0,0,14,7.58a.81.81,0,0,0,.7.36.75.75,0,0,0,.63-.3,3.09,3.09,0,0,0,.36-1.74,3,3,0,0,0-.35-1.58A.74.74,0,0,0,14.65,4a.66.66,0,0,0-.66.36A3.44,3.44,0,0,0,13.65,6Z"/><path d="M24.82,7a3.19,3.19,0,1,1-3.19-3.28A3.28,3.28,0,0,1,24.82,7ZM23.18,7a5.84,5.84,0,0,0-.35-2.15,1.34,1.34,0,0,0-1.2-.89,1.37,1.37,0,0,0-1.2.89A5.81,5.81,0,0,0,20.09,7a5.68,5.68,0,0,0,.34,2.13,1.35,1.35,0,0,0,1.2.89,1.33,1.33,0,0,0,1.2-.89A5.71,5.71,0,0,0,23.18,7Z"/></g></g></svg>