<svg xmlns="http://www.w3.org/2000/svg" viewBox="0 0 21.36 11.26"><title>logo-sample03</title><g id="レイヤー_2" data-name="レイヤー 2"><g id="レイヤー_1-2" data-name="レイヤー 1"><path d="M0,0H1.05V8.61H0Z"/><path d="M7.18,3A3.14,3.14,0,0,1,8,5.33a4.09,4.09,0,0,1-.74,2.51A2.63,2.63,0,0,1,5,8.83,2.55,2.55,0,0,1,3,8,3.47,3.47,0,0,1,2.21,5.6,3.69,3.69,0,0,1,3,3.09a2.64,2.64,0,0,1,2.14-.94A2.79,2.79,0,0,1,7.18,3ZM6.53,7.13a4,4,0,0,0,.38-1.77,3.21,3.21,0,0,0-.27-1.42,1.57,1.57,0,0,0-1.52-.87,1.49,1.49,0,0,0-1.39.74,3.43,3.43,0,0,0-.44,1.78,3,3,0,0,0,.44,1.66,1.52,1.52,0,0,0,1.38.67A1.43,1.43,0,0,0,6.53,7.13Z"/><path d="M12.8,2.58a3.1,3.1,0,0,1,.61.6V2.39h1V8.1A4.26,4.26,0,0,1,14,10a2.51,2.51,0,0,1-2.47,1.28,3,3,0,0,1-1.7-.45,1.77,1.77,0,0,1-.77-1.42h1.07a1.23,1.23,0,0,0,.3.65,1.57,1.57,0,0,0,1.12.35,1.54,1.54,0,0,0,1.58-.86,4.76,4.76,0,0,0,.21-1.8,2.16,2.16,0,0,1-.76.72,2.5,2.5,0,0,1-1.18.23A2.49,2.49,0,0,1,9.66,8a3.17,3.17,0,0,1-.77-2.39,3.64,3.64,0,0,1,.77-2.46,2.38,2.38,0,0,1,1.86-.89A2.28,2.28,0,0,1,12.8,2.58Zm.13,1.13a1.55,1.55,0,0,0-1.22-.56A1.52,1.52,0,0,0,10.19,4.2,4.16,4.16,0,0,0,10,5.65a2.59,2.59,0,0,0,.43,1.62,1.37,1.37,0,0,0,1.15.55,1.62,1.62,0,0,0,1.59-1,3.37,3.37,0,0,0,.26-1.36A2.65,2.65,0,0,0,12.93,3.71Z"/><path d="M20.53,3a3.14,3.14,0,0,1,.83,2.37,4.08,4.08,0,0,1-.73,2.51,2.65,2.65,0,0,1-2.27,1A2.59,2.59,0,0,1,16.31,8a3.52,3.52,0,0,1-.75-2.36,3.74,3.74,0,0,1,.79-2.51,2.67,2.67,0,0,1,2.14-.94A2.8,2.8,0,0,1,20.53,3Zm-.65,4.17a4.1,4.1,0,0,0,.38-1.77A3.07,3.07,0,0,0,20,3.94a1.55,1.55,0,0,0-1.51-.87,1.48,1.48,0,0,0-1.39.74,3.43,3.43,0,0,0-.44,1.78,3,3,0,0,0,.44,1.66,1.49,1.49,0,0,0,1.37.67A1.44,1.44,0,0,0,19.88,7.13Z"/></g></g></svg>